<svg xmlns="http://www.w3.org/2000/svg" id="v-5" xmlns:xlink="http://www.w3.org/1999/xlink" version="1.1"><rect id="svg-background" width="100%" fill="#F5F6F6" height="100%"></rect><g class="viewport" id="v-6" transform="translate(4px, -34px) scale(1)"><g class="link joint-theme-default" id="j_432" model-id="8eeabb57-0d93-4b2b-91b5-c4c4b3873d79"><path class="connection" id="v-6041" fill="none" stroke="#d2d2dc" stroke-width="1" d="M 266 130 L 220 130 S 210 130 210 125 L 210 125 S 210 120 201 120 L 191 120" /><path class="marker-source" id="v-6042" fill="white" stroke="#d2d2dc" stroke-width="1" transform="translate(271 135) scale(1) rotate(-180)" d="M -5 0 L 5 5 M -5 5 L 5 5 M -5 10 L 5 5 M 5 5" /><path class="marker-target" id="v-6043" fill="white" stroke="#d2d2dc" stroke-width="1" transform="translate(185 115) scale(1) rotate(0)" d="M 6 0 L 6 10 M 6 5 L 0 5 Z" /><g class="labels" id="v-6045" /></g><g class="link joint-theme-default" id="j_431" model-id="2e6657da-5e4e-4096-8200-55ebad77c381"><path class="connection" id="v-6028" fill="none" stroke="#d2d2dc" stroke-width="1" d="M 336 415 L 220 420 S 210 420 210 410 L 210 130 S 210 120 201 120 L 191 120" /><path class="marker-source" id="v-6029" fill="white" stroke="#d2d2dc" stroke-width="1" transform="translate(341.187 420.18) scale(1) rotate(-182.106)" d="M -5 0 L 5 5 M -5 5 L 5 5 M -5 10 L 5 5 M 5 5" /><path class="marker-target" id="v-6030" fill="white" stroke="#d2d2dc" stroke-width="1" transform="translate(185 115) scale(1) rotate(0)" d="M 6 0 L 6 10 M 6 5 L 0 5 Z" /><g class="labels" id="v-6032" /></g><g class="link joint-theme-default" id="j_430" model-id="cafcedf1-411d-4206-8c87-9c1f312859c7"><path class="connection" id="v-6015" fill="none" stroke="#d2d2dc" stroke-width="1" d="M 205 470 L 213 470 S 220 470 220 460 L 220 130 S 220 120 210 120 L 191 120" /><path class="marker-source" id="v-6016" fill="white" stroke="#d2d2dc" stroke-width="1" transform="translate(200 465) scale(1) rotate(0)" d="M -5 0 L 5 5 M -5 5 L 5 5 M -5 10 L 5 5 M 5 5" /><path class="marker-target" id="v-6017" fill="white" stroke="#d2d2dc" stroke-width="1" transform="translate(185 115) scale(1) rotate(0)" d="M 6 0 L 6 10 M 6 5 L 0 5 Z" /><g class="labels" id="v-6019" /></g><g class="link joint-theme-default" id="j_429" model-id="e58a218c-fe37-444a-9070-249b52c1f317"><path class="connection" id="v-6001" fill="none" stroke="#d2d2dc" stroke-width="1" d="M 205 440 L 320 440 S 330 440 330 430 L 330 210 S 330 200 340 200 L 520 200 S 530 200 530 190 L 530 160 S 530 150 536 149 L 542 148" /><path class="marker-source" id="v-6002" fill="white" stroke="#d2d2dc" stroke-width="1" transform="translate(200 435) scale(1) rotate(0)" d="M -5 0 L 5 5 M -5 5 L 5 5 M -5 10 L 5 5 M 5 5" /><path class="marker-target" id="v-6003" fill="white" stroke="#d2d2dc" stroke-width="1" transform="translate(548.822 151.932) scale(1) rotate(-189.462)" d="M 6 0 L 6 10 M 6 5 L 0 5 Z" /><g class="labels" id="v-6005" /></g><g class="link joint-theme-default" id="j_428" model-id="56e18f67-95ad-4839-bce3-94998513d764"><path class="connection" id="v-5987" fill="none" stroke="#d2d2dc" stroke-width="1" d="M 766 420 L 773 420 S 780 420 780 410 L 780 160 S 780 150 770 150 L 698 146" /><path class="marker-source" id="v-5988" fill="white" stroke="#d2d2dc" stroke-width="1" transform="translate(761 415) scale(1) rotate(0)" d="M -5 0 L 5 5 M -5 5 L 5 5 M -5 10 L 5 5 M 5 5" /><path class="marker-target" id="v-5989" fill="white" stroke="#d2d2dc" stroke-width="1" transform="translate(692.227 141.005) scale(1) rotate(2.60257)" d="M 6 0 L 6 10 M 6 5 L 0 5 Z" /><g class="labels" id="v-5991" /></g><g class="link joint-theme-default" id="j_427" model-id="66e5bf67-6bed-4941-82e5-1631c16422a4"><path class="connection" id="v-5973" fill="none" stroke="#d2d2dc" stroke-width="1" d="M 620 400 L 500 400 S 490 400 490 390 L 490 210 S 490 200 480 200 L 220 200 S 210 200 210 190 L 210 130 S 210 120 201 120 L 191 120" /><path class="marker-source" id="v-5974" fill="white" stroke="#d2d2dc" stroke-width="1" transform="translate(625 405) scale(1) rotate(-180)" d="M -5 0 L 5 5 M -5 5 L 5 5 M -5 10 L 5 5 M 5 5" /><path class="marker-target" id="v-5975" fill="white" stroke="#d2d2dc" stroke-width="1" transform="translate(185 115) scale(1) rotate(0)" d="M 6 0 L 6 10 M 6 5 L 0 5 Z" /><g class="labels" id="v-5977" /></g><g class="element basic newt joint-theme-default" id="j_426" font-family="Roboto,&quot;Helvetica Neue&quot;,sans-serif" fill="#ffffff" stroke="none" transform="translate(276 71)" magnet="false" model-id="69b746de-fcd2-4d90-a3ae-69d8d2e4a118"><g class="joint-table" id="v-5961" onmousedown="QdbdJS.onTableMouseDown(this)" onmouseup="QdbdJS.onTableMouseUp(this)">
          <rect class="joint-table-title" fill="#005aa0" stroke="#005aa0" onmousedown="QdbdJS.onRowMouseDown()" onmouseup="QdbdJS.onRowMouseUp(36)" onmousemove="QdbdJS.onRowMouseMove()" x="0" y="0" width="126" height="38" />
          <text class="joint-table-title-text" id="v-5968" font-size="14px" pointer-events="none" text-anchor="start" x="14" y="24">Titles</text>
          <g class="joint-table-rows">
            
        <g class="joint-table-row-group" onmousedown="QdbdJS.onRowMouseDown()" onmouseup="QdbdJS.onRowMouseUp(38)" onmousemove="QdbdJS.onRowMouseMove()">
          <rect class="joint-table-row" stroke="none" x="0" y="38" width="126" height="25" />
          
          
          <text class="joint-field-text" id="v-5969" font-size="12px" fill="#333" pointer-events="none" x="0" y="60">
            <tspan class="joint-field-name fk" font-weight="bold" fill="#222" text-anchor="start" x="14" y="60">
              emp_no
            </tspan>
            <tspan class="joint-field-type" fill="#adb1b5" text-anchor="end" x="112" y="60">
              int
            </tspan>
          </text>
          
          
        </g>
        <g class="joint-table-row-group" onmousedown="QdbdJS.onRowMouseDown()" onmouseup="QdbdJS.onRowMouseUp(39)" onmousemove="QdbdJS.onRowMouseMove()">
          <rect class="joint-table-row" stroke="none" x="0" y="63" width="126" height="25" />
          
          
          <text class="joint-field-text" id="v-5970" font-size="12px" fill="#333" pointer-events="none" x="0" y="85">
            <tspan class="joint-field-name " text-anchor="start" x="14" y="85">
              from_date
            </tspan>
            <tspan class="joint-field-type" fill="#adb1b5" text-anchor="end" x="112" y="85">
              date
            </tspan>
          </text>
          
          
        </g>
        <g class="joint-table-row-group" onmousedown="QdbdJS.onRowMouseDown()" onmouseup="QdbdJS.onRowMouseUp(40)" onmousemove="QdbdJS.onRowMouseMove()">
          <rect class="joint-table-row" stroke="none" x="0" y="88" width="126" height="31" />
          
          
          <text class="joint-field-text" id="v-5971" font-size="12px" fill="#333" pointer-events="none" x="0" y="110">
            <tspan class="joint-field-name " text-anchor="start" x="14" y="110">
              to_date
            </tspan>
            <tspan class="joint-field-type" fill="#adb1b5" text-anchor="end" x="112" y="110">
              date
            </tspan>
          </text>
          
          
        <rect class="joint-table-row" stroke="none" x="0" y="119" width="126" height="6" />
        
        </g>
          </g>
        </g></g><g class="element basic newt joint-theme-default" id="j_425" font-family="Roboto,&quot;Helvetica Neue&quot;,sans-serif" fill="#ffffff" stroke="none" transform="translate(346 359)" magnet="false" model-id="39f2baf0-e383-473d-96ed-6cc241c3cd4a"><g class="joint-table" id="v-5946" onmousedown="QdbdJS.onTableMouseDown(this)" onmouseup="QdbdJS.onTableMouseUp(this)">
          <rect class="joint-table-title" fill="#005aa0" stroke="#005aa0" onmousedown="QdbdJS.onRowMouseDown()" onmouseup="QdbdJS.onRowMouseUp(29)" onmousemove="QdbdJS.onRowMouseMove()" x="0" y="0" width="126" height="38" />
          <text class="joint-table-title-text" id="v-5955" font-size="14px" pointer-events="none" text-anchor="start" x="14" y="24">Salaries</text>
          <g class="joint-table-rows">
            
        <g class="joint-table-row-group" onmousedown="QdbdJS.onRowMouseDown()" onmouseup="QdbdJS.onRowMouseUp(31)" onmousemove="QdbdJS.onRowMouseMove()">
          <rect class="joint-table-row" stroke="none" x="0" y="38" width="126" height="25" />
          
          
          <text class="joint-field-text" id="v-5956" font-size="12px" fill="#333" pointer-events="none" x="0" y="60">
            <tspan class="joint-field-name fk" font-weight="bold" fill="#222" text-anchor="start" x="14" y="60">
              emp_no
            </tspan>
            <tspan class="joint-field-type" fill="#adb1b5" text-anchor="end" x="112" y="60">
              int
            </tspan>
          </text>
          
          
        </g>
        <g class="joint-table-row-group" onmousedown="QdbdJS.onRowMouseDown()" onmouseup="QdbdJS.onRowMouseUp(32)" onmousemove="QdbdJS.onRowMouseMove()">
          <rect class="joint-table-row" stroke="none" x="0" y="63" width="126" height="25" />
          
          
          <text class="joint-field-text" id="v-5957" font-size="12px" fill="#333" pointer-events="none" x="0" y="85">
            <tspan class="joint-field-name " text-anchor="start" x="14" y="85">
              salary
            </tspan>
            <tspan class="joint-field-type" fill="#adb1b5" text-anchor="end" x="112" y="85">
              int
            </tspan>
          </text>
          
          
        </g>
        <g class="joint-table-row-group" onmousedown="QdbdJS.onRowMouseDown()" onmouseup="QdbdJS.onRowMouseUp(33)" onmousemove="QdbdJS.onRowMouseMove()">
          <rect class="joint-table-row" stroke="none" x="0" y="88" width="126" height="25" />
          
          
          <text class="joint-field-text" id="v-5958" font-size="12px" fill="#333" pointer-events="none" x="0" y="110">
            <tspan class="joint-field-name " text-anchor="start" x="14" y="110">
              from_date
            </tspan>
            <tspan class="joint-field-type" fill="#adb1b5" text-anchor="end" x="112" y="110">
              date
            </tspan>
          </text>
          
          
        </g>
        <g class="joint-table-row-group" onmousedown="QdbdJS.onRowMouseDown()" onmouseup="QdbdJS.onRowMouseUp(34)" onmousemove="QdbdJS.onRowMouseMove()">
          <rect class="joint-table-row" stroke="none" x="0" y="113" width="126" height="31" />
          
          
          <text class="joint-field-text" id="v-5959" font-size="12px" fill="#333" pointer-events="none" x="0" y="135">
            <tspan class="joint-field-name " text-anchor="start" x="14" y="135">
              to_date
            </tspan>
            <tspan class="joint-field-type" fill="#adb1b5" text-anchor="end" x="112" y="135">
              date
            </tspan>
          </text>
          
          
        <rect class="joint-table-row" stroke="none" x="0" y="144" width="126" height="6" />
        
        </g>
          </g>
        </g></g><g class="element basic newt joint-theme-default" id="j_424" font-family="Roboto,&quot;Helvetica Neue&quot;,sans-serif" fill="#ffffff" stroke="none" transform="translate(32 64)" magnet="false" model-id="80ce968d-bc44-4387-aba3-1826220cd03a"><g class="joint-table active" id="v-5925" onmousedown="QdbdJS.onTableMouseDown(this)" onmouseup="QdbdJS.onTableMouseUp(this)">
          <rect class="joint-table-title" fill="#005aa0" stroke="#005aa0" onmousedown="QdbdJS.onRowMouseDown()" onmouseup="QdbdJS.onRowMouseUp(20)" onmousemove="QdbdJS.onRowMouseMove()" x="0" y="0" width="153" height="38" />
          <text class="joint-table-title-text" id="v-5938" font-size="14px" pointer-events="none" text-anchor="start" x="14" y="24">employee</text>
          <g class="joint-table-rows">
            
        <g class="joint-table-row-group" onmousedown="QdbdJS.onRowMouseDown()" onmouseup="QdbdJS.onRowMouseUp(22)" onmousemove="QdbdJS.onRowMouseMove()">
          <rect class="joint-table-row" stroke="none" x="0" y="38" width="153" height="25" />
          
          
          <text class="joint-field-text" id="v-5939" font-size="12px" fill="#333" pointer-events="none" x="0" y="60">
            <tspan class="joint-field-name pk" font-weight="bold" fill="#005aa0" text-anchor="start" x="14" y="60">
              emp_no
            </tspan>
            <tspan class="joint-field-type" fill="#adb1b5" text-anchor="end" x="139" y="60">
              int
            </tspan>
          </text>
          <path class="pk-key" fill="rgba(173, 177, 181, 0.7)" transform="matrix(0.7, 0, 0, 0.7, 102, 47)" d="M 22.208 2.205 l 0.167 0.006 l 0.167 0.011 l 0.166 0.015 l 0.165 0.019 l 0.164 0.023 l 0.163 0.028 l 0.161 0.031 l 0.16 0.035 l 0.158 0.039 l 0.157 0.043 l 0.156 0.047 l 0.153 0.051 l 0.152 0.054 l 0.151 0.058 l 0.148 0.061 l 0.146 0.065 l 0.145 0.068 l 0.142 0.072 l 0.141 0.075 l 0.138 0.078 l 0.136 0.082 l 0.134 0.085 l 0.132 0.087 l 0.129 0.091 l 0.127 0.094 l 0.125 0.097 l 0.122 0.099 l 0.12 0.103 l 0.117 0.105 l 0.114 0.108 l 0.112 0.11 l 0.11 0.114 l 0.106 0.116 l 0.104 0.118 l 0.101 0.121 l 0.098 0.123 l 0.096 0.126 l 0.092 0.128 l 0.089 0.13 l 0.087 0.133 l 0.083 0.135 l 0.08 0.137 l 0.077 0.139 l 0.074 0.141 l 0.07 0.144 l 0.067 0.145 l 0.064 0.147 l 0.06 0.149 l 0.056 0.151 l 0.053 0.152 l 0.05 0.154 l 0.046 0.156 l 0.042 0.157 l 0.038 0.159 l 0.035 0.16 l 0.03 0.162 l 0.027 0.162 l 0.023 0.164 l 0.018 0.165 l 0.015 0.167 l 0.01 0.167 l 0.007 0.168 l 0.002 0.168 l -0.002 0.169 l -0.007 0.168 l -0.01 0.167 l -0.015 0.166 l -0.018 0.166 l -0.023 0.163 l -0.027 0.163 l -0.03 0.162 l -0.035 0.16 l -0.038 0.159 l -0.042 0.157 l -0.046 0.156 l -0.05 0.154 l -0.053 0.152 l -0.056 0.151 l -0.06 0.149 l -0.064 0.147 l -0.067 0.145 l -0.07 0.143 l -0.074 0.142 l -0.077 0.139 l -0.08 0.137 l -0.083 0.135 l -0.087 0.132 l -0.089 0.131 l -0.092 0.128 l -0.096 0.125 l -0.098 0.124 l -0.101 0.121 l -0.104 0.118 l -0.106 0.116 l -0.11 0.113 l -0.112 0.111 l -0.114 0.108 l -0.117 0.105 l -0.12 0.103 l -0.122 0.099 l -0.125 0.097 l -0.127 0.094 l -0.129 0.09 l -0.132 0.088 l -0.134 0.085 l -0.136 0.081 l -0.138 0.078 l -0.141 0.076 l -0.142 0.071 l -0.145 0.069 l -0.146 0.064 l -0.148 0.062 l -0.151 0.058 l -0.152 0.054 l -0.153 0.05 l -0.156 0.047 l -0.157 0.043 l -0.158 0.039 l -0.16 0.036 l -0.161 0.031 l -0.163 0.027 l -0.164 0.024 l -0.165 0.019 l -0.166 0.015 l -0.167 0.01 l -0.167 0.007 l -0.169 0.002 l -0.168 -0.002 l -0.168 -0.007 l -0.167 -0.01 l -0.166 -0.015 l -0.165 -0.019 l -0.164 -0.024 l -0.163 -0.027 l -0.161 -0.031 l -0.16 -0.036 l -0.158 -0.039 l -0.157 -0.043 l -0.156 -0.047 l -0.153 -0.05 l -0.152 -0.054 l -0.15 -0.058 l -0.149 -0.062 l -0.146 -0.064 l -0.145 -0.069 l -0.142 -0.071 l -0.141 -0.076 l -0.138 -0.078 l -0.136 -0.081 l -0.134 -0.085 l -0.132 -0.088 l -0.129 -0.09 l -0.127 -0.094 l -0.125 -0.097 l -0.122 -0.099 l -0.12 -0.103 l -0.117 -0.105 l -0.114 -0.108 l -0.112 -0.111 l -0.11 -0.113 l -0.106 -0.116 l -0.104 -0.118 l -0.101 -0.121 l -0.098 -0.123 l -0.096 -0.126 l -0.092 -0.128 l -0.089 -0.131 l -0.087 -0.132 l -0.083 -0.135 l -0.08 -0.137 l -0.077 -0.139 l -0.073 -0.142 l -0.071 -0.143 l -0.067 -0.145 l -0.063 -0.147 l -0.061 -0.149 l -0.056 -0.151 l -0.053 -0.152 l -0.05 -0.154 l -0.046 -0.156 l -0.042 -0.157 l -0.038 -0.159 l -0.035 -0.16 l -0.03 -0.162 l -0.027 -0.163 l -0.023 -0.164 l -0.018 -0.165 l -0.015 -0.166 l -0.01 -0.167 l -0.007 -0.168 l -0.002 -0.169 l 0.002 -0.168 l 0.007 -0.168 l 0.01 -0.167 l 0.015 -0.167 l 0.018 -0.165 l 0.023 -0.164 l 0.027 -0.162 l 0.03 -0.162 l 0.035 -0.16 l 0.038 -0.159 l 0.042 -0.157 l 0.046 -0.156 l 0.05 -0.154 l 0.053 -0.152 l 0.056 -0.151 l 0.061 -0.149 l 0.063 -0.147 l 0.067 -0.145 l 0.071 -0.144 l 0.073 -0.141 l 0.077 -0.139 l 0.08 -0.137 l 0.083 -0.135 l 0.087 -0.133 l 0.089 -0.13 l 0.092 -0.128 l 0.096 -0.126 l 0.098 -0.123 l 0.101 -0.121 l 0.104 -0.118 l 0.106 -0.116 l 0.11 -0.114 l 0.112 -0.11 l 0.114 -0.108 l 0.117 -0.105 l 0.12 -0.103 l 0.122 -0.099 l 0.125 -0.097 l 0.127 -0.094 l 0.129 -0.091 l 0.132 -0.087 l 0.134 -0.085 l 0.136 -0.081 l 0.138 -0.079 l 0.141 -0.075 l 0.142 -0.072 l 0.145 -0.068 l 0.146 -0.065 l 0.149 -0.061 l 0.15 -0.058 l 0.152 -0.054 l 0.153 -0.051 l 0.156 -0.047 l 0.157 -0.043 l 0.158 -0.039 l 0.16 -0.035 l 0.161 -0.031 l 0.163 -0.028 l 0.164 -0.023 l 0.165 -0.019 l 0.166 -0.015 l 0.167 -0.011 l 0.167 -0.006 l 0.169 -0.002 l 0.169 0.002 Z m -0.232 4.128 l -0.062 0.002 l -0.061 0.004 l -0.061 0.006 l -0.06 0.007 l -0.059 0.008 l -0.059 0.01 l -0.059 0.011 l -0.058 0.013 l -0.057 0.014 l -0.057 0.016 l -0.056 0.017 l -0.055 0.018 l -0.056 0.02 l -0.054 0.021 l -0.054 0.022 l -0.053 0.024 l -0.053 0.025 l -0.052 0.026 l -0.052 0.027 l -0.05 0.029 l -0.051 0.03 l -0.049 0.031 l -0.049 0.033 l -0.048 0.033 l -0.047 0.035 l -0.046 0.036 l -0.046 0.037 l -0.044 0.039 l -0.044 0.039 l -0.043 0.04 l -0.042 0.042 l -0.041 0.042 l -0.04 0.044 l -0.039 0.044 l -0.038 0.046 l -0.037 0.046 l -0.036 0.048 l -0.035 0.048 l -0.033 0.049 l -0.033 0.05 l -0.031 0.05 l -0.03 0.052 l -0.029 0.052 l -0.028 0.053 l -0.026 0.054 l -0.025 0.054 l -0.024 0.055 l -0.023 0.056 l -0.021 0.056 l -0.02 0.057 l -0.018 0.058 l -0.017 0.059 l -0.016 0.059 l -0.014 0.059 l -0.013 0.06 l -0.012 0.061 l -0.01 0.062 l -0.009 0.062 l -0.007 0.062 l -0.005 0.064 l -0.004 0.063 l -0.003 0.065 l 0 0.065 l 0 0.066 l 0.003 0.064 l 0.004 0.064 l 0.005 0.063 l 0.007 0.063 l 0.009 0.062 l 0.01 0.062 l 0.012 0.06 l 0.013 0.061 l 0.014 0.059 l 0.016 0.059 l 0.017 0.058 l 0.018 0.058 l 0.02 0.057 l 0.021 0.057 l 0.023 0.055 l 0.024 0.056 l 0.025 0.054 l 0.026 0.054 l 0.028 0.053 l 0.029 0.052 l 0.03 0.051 l 0.031 0.051 l 0.033 0.05 l 0.033 0.049 l 0.035 0.048 l 0.036 0.047 l 0.037 0.047 l 0.038 0.045 l 0.039 0.045 l 0.04 0.043 l 0.041 0.043 l 0.042 0.041 l 0.043 0.041 l 0.044 0.039 l 0.044 0.038 l 0.046 0.037 l 0.046 0.036 l 0.047 0.035 l 0.048 0.034 l 0.049 0.032 l 0.049 0.032 l 0.051 0.03 l 0.05 0.028 l 0.052 0.028 l 0.052 0.026 l 0.053 0.025 l 0.053 0.024 l 0.054 0.022 l 0.054 0.021 l 0.056 0.02 l 0.055 0.018 l 0.056 0.017 l 0.057 0.015 l 0.057 0.015 l 0.058 0.012 l 0.059 0.012 l 0.059 0.01 l 0.059 0.008 l 0.06 0.007 l 0.061 0.005 l 0.061 0.004 l 0.062 0.003 l 0.063 0.001 l 0.063 -0.001 l 0.062 -0.003 l 0.061 -0.004 l 0.061 -0.005 l 0.06 -0.007 l 0.059 -0.008 l 0.059 -0.01 l 0.059 -0.012 l 0.058 -0.012 l 0.057 -0.015 l 0.057 -0.015 l 0.056 -0.017 l 0.056 -0.018 l 0.055 -0.02 l 0.054 -0.021 l 0.054 -0.022 l 0.053 -0.024 l 0.053 -0.025 l 0.052 -0.026 l 0.052 -0.028 l 0.051 -0.028 l 0.05 -0.031 l 0.049 -0.031 l 0.049 -0.032 l 0.048 -0.034 l 0.047 -0.035 l 0.046 -0.036 l 0.046 -0.037 l 0.045 -0.038 l 0.043 -0.039 l 0.043 -0.041 l 0.042 -0.041 l 0.041 -0.043 l 0.04 -0.043 l 0.039 -0.045 l 0.038 -0.045 l 0.037 -0.046 l 0.036 -0.048 l 0.035 -0.048 l 0.033 -0.049 l 0.033 -0.05 l 0.031 -0.05 l 0.03 -0.052 l 0.029 -0.052 l 0.028 -0.053 l 0.026 -0.054 l 0.025 -0.054 l 0.024 -0.055 l 0.023 -0.056 l 0.021 -0.057 l 0.02 -0.057 l 0.018 -0.058 l 0.017 -0.058 l 0.016 -0.059 l 0.014 -0.059 l 0.013 -0.061 l 0.012 -0.06 l 0.01 -0.062 l 0.009 -0.062 l 0.007 -0.063 l 0.005 -0.063 l 0.004 -0.064 l 0.003 -0.064 l 0.001 -0.066 l -0.001 -0.065 l -0.003 -0.064 l -0.004 -0.064 l -0.005 -0.064 l -0.007 -0.062 l -0.009 -0.062 l -0.01 -0.062 l -0.012 -0.061 l -0.013 -0.06 l -0.014 -0.059 l -0.016 -0.059 l -0.017 -0.059 l -0.018 -0.058 l -0.02 -0.057 l -0.021 -0.056 l -0.023 -0.056 l -0.024 -0.055 l -0.025 -0.054 l -0.026 -0.054 l -0.028 -0.053 l -0.029 -0.052 l -0.03 -0.052 l -0.031 -0.05 l -0.033 -0.05 l -0.033 -0.049 l -0.035 -0.048 l -0.036 -0.048 l -0.037 -0.046 l -0.038 -0.046 l -0.039 -0.044 l -0.04 -0.044 l -0.041 -0.042 l -0.042 -0.042 l -0.043 -0.04 l -0.043 -0.039 l -0.045 -0.039 l -0.046 -0.037 l -0.046 -0.036 l -0.047 -0.035 l -0.048 -0.033 l -0.049 -0.033 l -0.049 -0.031 l -0.05 -0.03 l -0.051 -0.029 l -0.052 -0.027 l -0.052 -0.026 l -0.053 -0.025 l -0.053 -0.024 l -0.054 -0.022 l -0.054 -0.021 l -0.055 -0.02 l -0.056 -0.018 l -0.056 -0.017 l -0.057 -0.016 l -0.057 -0.014 l -0.058 -0.013 l -0.059 -0.011 l -0.059 -0.01 l -0.059 -0.008 l -0.06 -0.007 l -0.061 -0.006 l -0.061 -0.004 l -0.062 -0.002 l -0.063 -0.001 l -0.063 0.001 Z" />
                <rect class="pk-key" fill="rgba(173, 177, 181, 0.7)" x="103" y="51.5" width="10.2" height="3" />
                <rect class="pk-key" fill="rgba(173, 177, 181, 0.7)" x="104.2" y="54.5" width="2" height="3" />
                <rect class="pk-key" fill="rgba(173, 177, 181, 0.7)" x="108" y="54.5" width="2" height="3" />
          
        </g>
        <g class="joint-table-row-group" onmousedown="QdbdJS.onRowMouseDown()" onmouseup="QdbdJS.onRowMouseUp(23)" onmousemove="QdbdJS.onRowMouseMove()">
          <rect class="joint-table-row" stroke="none" x="0" y="63" width="153" height="25" />
          
          
          <text class="joint-field-text" id="v-5940" font-size="12px" fill="#333" pointer-events="none" x="0" y="85">
            <tspan class="joint-field-name " text-anchor="start" x="14" y="85">
              birth_date
            </tspan>
            <tspan class="joint-field-type" fill="#adb1b5" text-anchor="end" x="139" y="85">
              date
            </tspan>
          </text>
          
          
        </g>
        <g class="joint-table-row-group" onmousedown="QdbdJS.onRowMouseDown()" onmouseup="QdbdJS.onRowMouseUp(24)" onmousemove="QdbdJS.onRowMouseMove()">
          <rect class="joint-table-row" stroke="none" x="0" y="88" width="153" height="25" />
          
          
          <text class="joint-field-text" id="v-5941" font-size="12px" fill="#333" pointer-events="none" x="0" y="110">
            <tspan class="joint-field-name " text-anchor="start" x="14" y="110">
              first_name
            </tspan>
            <tspan class="joint-field-type" fill="#adb1b5" text-anchor="end" x="139" y="110">
              string
            </tspan>
          </text>
          
          
        </g>
        <g class="joint-table-row-group" onmousedown="QdbdJS.onRowMouseDown()" onmouseup="QdbdJS.onRowMouseUp(25)" onmousemove="QdbdJS.onRowMouseMove()">
          <rect class="joint-table-row" stroke="none" x="0" y="113" width="153" height="25" />
          
          
          <text class="joint-field-text" id="v-5942" font-size="12px" fill="#333" pointer-events="none" x="0" y="135">
            <tspan class="joint-field-name " text-anchor="start" x="14" y="135">
              last_name
            </tspan>
            <tspan class="joint-field-type" fill="#adb1b5" text-anchor="end" x="139" y="135">
              string
            </tspan>
          </text>
          
          
        </g>
        <g class="joint-table-row-group" onmousedown="QdbdJS.onRowMouseDown()" onmouseup="QdbdJS.onRowMouseUp(26)" onmousemove="QdbdJS.onRowMouseMove()">
          <rect class="joint-table-row" stroke="none" x="0" y="138" width="153" height="25" />
          
          
          <text class="joint-field-text" id="v-5943" font-size="12px" fill="#333" pointer-events="none" x="0" y="160">
            <tspan class="joint-field-name " text-anchor="start" x="14" y="160">
              gender
            </tspan>
            <tspan class="joint-field-type" fill="#adb1b5" text-anchor="end" x="139" y="160">
              string
            </tspan>
          </text>
          
          
        </g>
        <g class="joint-table-row-group" onmousedown="QdbdJS.onRowMouseDown()" onmouseup="QdbdJS.onRowMouseUp(27)" onmousemove="QdbdJS.onRowMouseMove()">
          <rect class="joint-table-row" stroke="none" x="0" y="163" width="153" height="31" />
          
          
          <text class="joint-field-text" id="v-5944" font-size="12px" fill="#333" pointer-events="none" x="0" y="185">
            <tspan class="joint-field-name " text-anchor="start" x="14" y="185">
              hire_date
            </tspan>
            <tspan class="joint-field-type" fill="#adb1b5" text-anchor="end" x="139" y="185">
              date
            </tspan>
          </text>
          
          
        <rect class="joint-table-row" stroke="none" x="0" y="194" width="153" height="6" />
        
        </g>
          </g>
        </g></g><g class="element basic newt joint-theme-default" id="j_423" font-family="Roboto,&quot;Helvetica Neue&quot;,sans-serif" fill="#ffffff" stroke="none" transform="translate(26 388)" magnet="false" model-id="708e01a6-baef-41b2-a7a9-325c6f7007ac"><g class="joint-table active" id="v-5910" onmousedown="QdbdJS.onTableMouseDown(this)" onmouseup="QdbdJS.onTableMouseUp(this)">
          <rect class="joint-table-title" fill="#005aa0" stroke="#005aa0" onmousedown="QdbdJS.onRowMouseDown()" onmouseup="QdbdJS.onRowMouseUp(13)" onmousemove="QdbdJS.onRowMouseMove()" x="0" y="0" width="169" height="38" />
          <text class="joint-table-title-text" id="v-5919" font-size="14px" pointer-events="none" text-anchor="start" x="14" y="24">dept_managers</text>
          <g class="joint-table-rows">
            
        <g class="joint-table-row-group" onmousedown="QdbdJS.onRowMouseDown()" onmouseup="QdbdJS.onRowMouseUp(15)" onmousemove="QdbdJS.onRowMouseMove()">
          <rect class="joint-table-row" stroke="none" x="0" y="38" width="169" height="25" />
          
          
          <text class="joint-field-text" id="v-5920" font-size="12px" fill="#333" pointer-events="none" x="0" y="60">
            <tspan class="joint-field-name fk" font-weight="bold" fill="#222" text-anchor="start" x="14" y="60">
              dept_no
            </tspan>
            <tspan class="joint-field-type" fill="#adb1b5" text-anchor="end" x="155" y="60">
              int
            </tspan>
          </text>
          
          
        </g>
        <g class="joint-table-row-group" onmousedown="QdbdJS.onRowMouseDown()" onmouseup="QdbdJS.onRowMouseUp(16)" onmousemove="QdbdJS.onRowMouseMove()">
          <rect class="joint-table-row" stroke="none" x="0" y="63" width="169" height="25" />
          
          
          <text class="joint-field-text" id="v-5921" font-size="12px" fill="#333" pointer-events="none" x="0" y="85">
            <tspan class="joint-field-name fk" font-weight="bold" fill="#222" text-anchor="start" x="14" y="85">
              emp_no
            </tspan>
            <tspan class="joint-field-type" fill="#adb1b5" text-anchor="end" x="155" y="85">
              int
            </tspan>
          </text>
          
          
        </g>
        <g class="joint-table-row-group" onmousedown="QdbdJS.onRowMouseDown()" onmouseup="QdbdJS.onRowMouseUp(17)" onmousemove="QdbdJS.onRowMouseMove()">
          <rect class="joint-table-row" stroke="none" x="0" y="88" width="169" height="25" />
          
          
          <text class="joint-field-text" id="v-5922" font-size="12px" fill="#333" pointer-events="none" x="0" y="110">
            <tspan class="joint-field-name " text-anchor="start" x="14" y="110">
              from_date
            </tspan>
            <tspan class="joint-field-type" fill="#adb1b5" text-anchor="end" x="155" y="110">
              date
            </tspan>
          </text>
          
          
        </g>
        <g class="joint-table-row-group" onmousedown="QdbdJS.onRowMouseDown()" onmouseup="QdbdJS.onRowMouseUp(18)" onmousemove="QdbdJS.onRowMouseMove()">
          <rect class="joint-table-row" stroke="none" x="0" y="113" width="169" height="31" />
          
          
          <text class="joint-field-text" id="v-5923" font-size="12px" fill="#333" pointer-events="none" x="0" y="135">
            <tspan class="joint-field-name " text-anchor="start" x="14" y="135">
              to_date
            </tspan>
            <tspan class="joint-field-type" fill="#adb1b5" text-anchor="end" x="155" y="135">
              date
            </tspan>
          </text>
          
          
        <rect class="joint-table-row" stroke="none" x="0" y="144" width="169" height="6" />
        
        </g>
          </g>
        </g></g><g class="element basic newt joint-theme-default" id="j_422" font-family="Roboto,&quot;Helvetica Neue&quot;,sans-serif" fill="#ffffff" stroke="none" transform="translate(630 343)" magnet="false" model-id="0cf0b387-0ac4-4bf7-89ae-f673ba9fd47c"><g class="joint-table" id="v-5895" onmousedown="QdbdJS.onTableMouseDown(this)" onmouseup="QdbdJS.onTableMouseUp(this)">
          <rect class="joint-table-title" fill="#005aa0" stroke="#005aa0" onmousedown="QdbdJS.onRowMouseDown()" onmouseup="QdbdJS.onRowMouseUp(6)" onmousemove="QdbdJS.onRowMouseMove()" x="0" y="0" width="126" height="38" />
          <text class="joint-table-title-text" id="v-5904" font-size="14px" pointer-events="none" text-anchor="start" x="14" y="24">dept_emp</text>
          <g class="joint-table-rows">
            
        <g class="joint-table-row-group" onmousedown="QdbdJS.onRowMouseDown()" onmouseup="QdbdJS.onRowMouseUp(8)" onmousemove="QdbdJS.onRowMouseMove()">
          <rect class="joint-table-row" stroke="none" x="0" y="38" width="126" height="25" />
          
          
          <text class="joint-field-text" id="v-5905" font-size="12px" fill="#333" pointer-events="none" x="0" y="60">
            <tspan class="joint-field-name fk" font-weight="bold" fill="#222" text-anchor="start" x="14" y="60">
              emp_no
            </tspan>
            <tspan class="joint-field-type" fill="#adb1b5" text-anchor="end" x="112" y="60">
              int
            </tspan>
          </text>
          
          
        </g>
        <g class="joint-table-row-group" onmousedown="QdbdJS.onRowMouseDown()" onmouseup="QdbdJS.onRowMouseUp(9)" onmousemove="QdbdJS.onRowMouseMove()">
          <rect class="joint-table-row" stroke="none" x="0" y="63" width="126" height="25" />
          
          
          <text class="joint-field-text" id="v-5906" font-size="12px" fill="#333" pointer-events="none" x="0" y="85">
            <tspan class="joint-field-name fk" font-weight="bold" fill="#222" text-anchor="start" x="14" y="85">
              dept_no
            </tspan>
            <tspan class="joint-field-type" fill="#adb1b5" text-anchor="end" x="112" y="85">
              int
            </tspan>
          </text>
          
          
        </g>
        <g class="joint-table-row-group" onmousedown="QdbdJS.onRowMouseDown()" onmouseup="QdbdJS.onRowMouseUp(10)" onmousemove="QdbdJS.onRowMouseMove()">
          <rect class="joint-table-row" stroke="none" x="0" y="88" width="126" height="25" />
          
          
          <text class="joint-field-text" id="v-5907" font-size="12px" fill="#333" pointer-events="none" x="0" y="110">
            <tspan class="joint-field-name " text-anchor="start" x="14" y="110">
              from_date
            </tspan>
            <tspan class="joint-field-type" fill="#adb1b5" text-anchor="end" x="112" y="110">
              date
            </tspan>
          </text>
          
          
        </g>
        <g class="joint-table-row-group" onmousedown="QdbdJS.onRowMouseDown()" onmouseup="QdbdJS.onRowMouseUp(11)" onmousemove="QdbdJS.onRowMouseMove()">
          <rect class="joint-table-row" stroke="none" x="0" y="113" width="126" height="31" />
          
          
          <text class="joint-field-text" id="v-5908" font-size="12px" fill="#333" pointer-events="none" x="0" y="135">
            <tspan class="joint-field-name " text-anchor="start" x="14" y="135">
              to_date
            </tspan>
            <tspan class="joint-field-type" fill="#adb1b5" text-anchor="end" x="112" y="135">
              date
            </tspan>
          </text>
          
          
        <rect class="joint-table-row" stroke="none" x="0" y="144" width="126" height="6" />
        
        </g>
          </g>
        </g></g><g class="element basic newt joint-theme-default" id="j_421" font-family="Roboto,&quot;Helvetica Neue&quot;,sans-serif" fill="#ffffff" stroke="none" transform="translate(548 90)" magnet="false" model-id="f7f356c2-7033-48e6-80b8-4e0e2cba9e15"><g class="joint-table" id="v-5886" onmousedown="QdbdJS.onTableMouseDown(this)" onmouseup="QdbdJS.onTableMouseUp(this)">
          <rect class="joint-table-title" fill="#005aa0" stroke="#005aa0" onmousedown="QdbdJS.onRowMouseDown()" onmouseup="QdbdJS.onRowMouseUp(1)" onmousemove="QdbdJS.onRowMouseMove()" x="0" y="0" width="144" height="38" />
          <text class="joint-table-title-text" id="v-5891" font-size="14px" pointer-events="none" text-anchor="start" x="14" y="24">Departments</text>
          <g class="joint-table-rows">
            
        <g class="joint-table-row-group" onmousedown="QdbdJS.onRowMouseDown()" onmouseup="QdbdJS.onRowMouseUp(3)" onmousemove="QdbdJS.onRowMouseMove()">
          <rect class="joint-table-row" stroke="none" x="0" y="38" width="144" height="25" />
          
          
          <text class="joint-field-text" id="v-5892" font-size="12px" fill="#333" pointer-events="none" x="0" y="60">
            <tspan class="joint-field-name pk" font-weight="bold" fill="#005aa0" text-anchor="start" x="14" y="60">
              dept_no
            </tspan>
            <tspan class="joint-field-type" fill="#adb1b5" text-anchor="end" x="130" y="60">
              int
            </tspan>
          </text>
          <path class="pk-key" fill="rgba(173, 177, 181, 0.7)" transform="matrix(0.7, 0, 0, 0.7, 93, 47)" d="M 22.208 2.205 l 0.167 0.006 l 0.167 0.011 l 0.166 0.015 l 0.165 0.019 l 0.164 0.023 l 0.163 0.028 l 0.161 0.031 l 0.16 0.035 l 0.158 0.039 l 0.157 0.043 l 0.156 0.047 l 0.153 0.051 l 0.152 0.054 l 0.151 0.058 l 0.148 0.061 l 0.146 0.065 l 0.145 0.068 l 0.142 0.072 l 0.141 0.075 l 0.138 0.078 l 0.136 0.082 l 0.134 0.085 l 0.132 0.087 l 0.129 0.091 l 0.127 0.094 l 0.125 0.097 l 0.122 0.099 l 0.12 0.103 l 0.117 0.105 l 0.114 0.108 l 0.112 0.11 l 0.11 0.114 l 0.106 0.116 l 0.104 0.118 l 0.101 0.121 l 0.098 0.123 l 0.096 0.126 l 0.092 0.128 l 0.089 0.13 l 0.087 0.133 l 0.083 0.135 l 0.08 0.137 l 0.077 0.139 l 0.074 0.141 l 0.07 0.144 l 0.067 0.145 l 0.064 0.147 l 0.06 0.149 l 0.056 0.151 l 0.053 0.152 l 0.05 0.154 l 0.046 0.156 l 0.042 0.157 l 0.038 0.159 l 0.035 0.16 l 0.03 0.162 l 0.027 0.162 l 0.023 0.164 l 0.018 0.165 l 0.015 0.167 l 0.01 0.167 l 0.007 0.168 l 0.002 0.168 l -0.002 0.169 l -0.007 0.168 l -0.01 0.167 l -0.015 0.166 l -0.018 0.166 l -0.023 0.163 l -0.027 0.163 l -0.03 0.162 l -0.035 0.16 l -0.038 0.159 l -0.042 0.157 l -0.046 0.156 l -0.05 0.154 l -0.053 0.152 l -0.056 0.151 l -0.06 0.149 l -0.064 0.147 l -0.067 0.145 l -0.07 0.143 l -0.074 0.142 l -0.077 0.139 l -0.08 0.137 l -0.083 0.135 l -0.087 0.132 l -0.089 0.131 l -0.092 0.128 l -0.096 0.125 l -0.098 0.124 l -0.101 0.121 l -0.104 0.118 l -0.106 0.116 l -0.11 0.113 l -0.112 0.111 l -0.114 0.108 l -0.117 0.105 l -0.12 0.103 l -0.122 0.099 l -0.125 0.097 l -0.127 0.094 l -0.129 0.09 l -0.132 0.088 l -0.134 0.085 l -0.136 0.081 l -0.138 0.078 l -0.141 0.076 l -0.142 0.071 l -0.145 0.069 l -0.146 0.064 l -0.148 0.062 l -0.151 0.058 l -0.152 0.054 l -0.153 0.05 l -0.156 0.047 l -0.157 0.043 l -0.158 0.039 l -0.16 0.036 l -0.161 0.031 l -0.163 0.027 l -0.164 0.024 l -0.165 0.019 l -0.166 0.015 l -0.167 0.01 l -0.167 0.007 l -0.169 0.002 l -0.168 -0.002 l -0.168 -0.007 l -0.167 -0.01 l -0.166 -0.015 l -0.165 -0.019 l -0.164 -0.024 l -0.163 -0.027 l -0.161 -0.031 l -0.16 -0.036 l -0.158 -0.039 l -0.157 -0.043 l -0.156 -0.047 l -0.153 -0.05 l -0.152 -0.054 l -0.15 -0.058 l -0.149 -0.062 l -0.146 -0.064 l -0.145 -0.069 l -0.142 -0.071 l -0.141 -0.076 l -0.138 -0.078 l -0.136 -0.081 l -0.134 -0.085 l -0.132 -0.088 l -0.129 -0.09 l -0.127 -0.094 l -0.125 -0.097 l -0.122 -0.099 l -0.12 -0.103 l -0.117 -0.105 l -0.114 -0.108 l -0.112 -0.111 l -0.11 -0.113 l -0.106 -0.116 l -0.104 -0.118 l -0.101 -0.121 l -0.098 -0.123 l -0.096 -0.126 l -0.092 -0.128 l -0.089 -0.131 l -0.087 -0.132 l -0.083 -0.135 l -0.08 -0.137 l -0.077 -0.139 l -0.073 -0.142 l -0.071 -0.143 l -0.067 -0.145 l -0.063 -0.147 l -0.061 -0.149 l -0.056 -0.151 l -0.053 -0.152 l -0.05 -0.154 l -0.046 -0.156 l -0.042 -0.157 l -0.038 -0.159 l -0.035 -0.16 l -0.03 -0.162 l -0.027 -0.163 l -0.023 -0.164 l -0.018 -0.165 l -0.015 -0.166 l -0.01 -0.167 l -0.007 -0.168 l -0.002 -0.169 l 0.002 -0.168 l 0.007 -0.168 l 0.01 -0.167 l 0.015 -0.167 l 0.018 -0.165 l 0.023 -0.164 l 0.027 -0.162 l 0.03 -0.162 l 0.035 -0.16 l 0.038 -0.159 l 0.042 -0.157 l 0.046 -0.156 l 0.05 -0.154 l 0.053 -0.152 l 0.056 -0.151 l 0.061 -0.149 l 0.063 -0.147 l 0.067 -0.145 l 0.071 -0.144 l 0.073 -0.141 l 0.077 -0.139 l 0.08 -0.137 l 0.083 -0.135 l 0.087 -0.133 l 0.089 -0.13 l 0.092 -0.128 l 0.096 -0.126 l 0.098 -0.123 l 0.101 -0.121 l 0.104 -0.118 l 0.106 -0.116 l 0.11 -0.114 l 0.112 -0.11 l 0.114 -0.108 l 0.117 -0.105 l 0.12 -0.103 l 0.122 -0.099 l 0.125 -0.097 l 0.127 -0.094 l 0.129 -0.091 l 0.132 -0.087 l 0.134 -0.085 l 0.136 -0.081 l 0.138 -0.079 l 0.141 -0.075 l 0.142 -0.072 l 0.145 -0.068 l 0.146 -0.065 l 0.149 -0.061 l 0.15 -0.058 l 0.152 -0.054 l 0.153 -0.051 l 0.156 -0.047 l 0.157 -0.043 l 0.158 -0.039 l 0.16 -0.035 l 0.161 -0.031 l 0.163 -0.028 l 0.164 -0.023 l 0.165 -0.019 l 0.166 -0.015 l 0.167 -0.011 l 0.167 -0.006 l 0.169 -0.002 l 0.169 0.002 Z m -0.232 4.128 l -0.062 0.002 l -0.061 0.004 l -0.061 0.006 l -0.06 0.007 l -0.059 0.008 l -0.059 0.01 l -0.059 0.011 l -0.058 0.013 l -0.057 0.014 l -0.057 0.016 l -0.056 0.017 l -0.055 0.018 l -0.056 0.02 l -0.054 0.021 l -0.054 0.022 l -0.053 0.024 l -0.053 0.025 l -0.052 0.026 l -0.052 0.027 l -0.05 0.029 l -0.051 0.03 l -0.049 0.031 l -0.049 0.033 l -0.048 0.033 l -0.047 0.035 l -0.046 0.036 l -0.046 0.037 l -0.044 0.039 l -0.044 0.039 l -0.043 0.04 l -0.042 0.042 l -0.041 0.042 l -0.04 0.044 l -0.039 0.044 l -0.038 0.046 l -0.037 0.046 l -0.036 0.048 l -0.035 0.048 l -0.033 0.049 l -0.033 0.05 l -0.031 0.05 l -0.03 0.052 l -0.029 0.052 l -0.028 0.053 l -0.026 0.054 l -0.025 0.054 l -0.024 0.055 l -0.023 0.056 l -0.021 0.056 l -0.02 0.057 l -0.018 0.058 l -0.017 0.059 l -0.016 0.059 l -0.014 0.059 l -0.013 0.06 l -0.012 0.061 l -0.01 0.062 l -0.009 0.062 l -0.007 0.062 l -0.005 0.064 l -0.004 0.063 l -0.003 0.065 l 0 0.065 l 0 0.066 l 0.003 0.064 l 0.004 0.064 l 0.005 0.063 l 0.007 0.063 l 0.009 0.062 l 0.01 0.062 l 0.012 0.06 l 0.013 0.061 l 0.014 0.059 l 0.016 0.059 l 0.017 0.058 l 0.018 0.058 l 0.02 0.057 l 0.021 0.057 l 0.023 0.055 l 0.024 0.056 l 0.025 0.054 l 0.026 0.054 l 0.028 0.053 l 0.029 0.052 l 0.03 0.051 l 0.031 0.051 l 0.033 0.05 l 0.033 0.049 l 0.035 0.048 l 0.036 0.047 l 0.037 0.047 l 0.038 0.045 l 0.039 0.045 l 0.04 0.043 l 0.041 0.043 l 0.042 0.041 l 0.043 0.041 l 0.044 0.039 l 0.044 0.038 l 0.046 0.037 l 0.046 0.036 l 0.047 0.035 l 0.048 0.034 l 0.049 0.032 l 0.049 0.032 l 0.051 0.03 l 0.05 0.028 l 0.052 0.028 l 0.052 0.026 l 0.053 0.025 l 0.053 0.024 l 0.054 0.022 l 0.054 0.021 l 0.056 0.02 l 0.055 0.018 l 0.056 0.017 l 0.057 0.015 l 0.057 0.015 l 0.058 0.012 l 0.059 0.012 l 0.059 0.01 l 0.059 0.008 l 0.06 0.007 l 0.061 0.005 l 0.061 0.004 l 0.062 0.003 l 0.063 0.001 l 0.063 -0.001 l 0.062 -0.003 l 0.061 -0.004 l 0.061 -0.005 l 0.06 -0.007 l 0.059 -0.008 l 0.059 -0.01 l 0.059 -0.012 l 0.058 -0.012 l 0.057 -0.015 l 0.057 -0.015 l 0.056 -0.017 l 0.056 -0.018 l 0.055 -0.02 l 0.054 -0.021 l 0.054 -0.022 l 0.053 -0.024 l 0.053 -0.025 l 0.052 -0.026 l 0.052 -0.028 l 0.051 -0.028 l 0.05 -0.031 l 0.049 -0.031 l 0.049 -0.032 l 0.048 -0.034 l 0.047 -0.035 l 0.046 -0.036 l 0.046 -0.037 l 0.045 -0.038 l 0.043 -0.039 l 0.043 -0.041 l 0.042 -0.041 l 0.041 -0.043 l 0.04 -0.043 l 0.039 -0.045 l 0.038 -0.045 l 0.037 -0.046 l 0.036 -0.048 l 0.035 -0.048 l 0.033 -0.049 l 0.033 -0.05 l 0.031 -0.05 l 0.03 -0.052 l 0.029 -0.052 l 0.028 -0.053 l 0.026 -0.054 l 0.025 -0.054 l 0.024 -0.055 l 0.023 -0.056 l 0.021 -0.057 l 0.02 -0.057 l 0.018 -0.058 l 0.017 -0.058 l 0.016 -0.059 l 0.014 -0.059 l 0.013 -0.061 l 0.012 -0.06 l 0.01 -0.062 l 0.009 -0.062 l 0.007 -0.063 l 0.005 -0.063 l 0.004 -0.064 l 0.003 -0.064 l 0.001 -0.066 l -0.001 -0.065 l -0.003 -0.064 l -0.004 -0.064 l -0.005 -0.064 l -0.007 -0.062 l -0.009 -0.062 l -0.01 -0.062 l -0.012 -0.061 l -0.013 -0.06 l -0.014 -0.059 l -0.016 -0.059 l -0.017 -0.059 l -0.018 -0.058 l -0.02 -0.057 l -0.021 -0.056 l -0.023 -0.056 l -0.024 -0.055 l -0.025 -0.054 l -0.026 -0.054 l -0.028 -0.053 l -0.029 -0.052 l -0.03 -0.052 l -0.031 -0.05 l -0.033 -0.05 l -0.033 -0.049 l -0.035 -0.048 l -0.036 -0.048 l -0.037 -0.046 l -0.038 -0.046 l -0.039 -0.044 l -0.04 -0.044 l -0.041 -0.042 l -0.042 -0.042 l -0.043 -0.04 l -0.043 -0.039 l -0.045 -0.039 l -0.046 -0.037 l -0.046 -0.036 l -0.047 -0.035 l -0.048 -0.033 l -0.049 -0.033 l -0.049 -0.031 l -0.05 -0.03 l -0.051 -0.029 l -0.052 -0.027 l -0.052 -0.026 l -0.053 -0.025 l -0.053 -0.024 l -0.054 -0.022 l -0.054 -0.021 l -0.055 -0.02 l -0.056 -0.018 l -0.056 -0.017 l -0.057 -0.016 l -0.057 -0.014 l -0.058 -0.013 l -0.059 -0.011 l -0.059 -0.01 l -0.059 -0.008 l -0.06 -0.007 l -0.061 -0.006 l -0.061 -0.004 l -0.062 -0.002 l -0.063 -0.001 l -0.063 0.001 Z" />
                <rect class="pk-key" fill="rgba(173, 177, 181, 0.7)" x="94" y="51.5" width="10.2" height="3" />
                <rect class="pk-key" fill="rgba(173, 177, 181, 0.7)" x="95.2" y="54.5" width="2" height="3" />
                <rect class="pk-key" fill="rgba(173, 177, 181, 0.7)" x="99" y="54.5" width="2" height="3" />
          
        </g>
        <g class="joint-table-row-group" onmousedown="QdbdJS.onRowMouseDown()" onmouseup="QdbdJS.onRowMouseUp(4)" onmousemove="QdbdJS.onRowMouseMove()">
          <rect class="joint-table-row" stroke="none" x="0" y="63" width="144" height="31" />
          
          
          <text class="joint-field-text" id="v-5893" font-size="12px" fill="#333" pointer-events="none" x="0" y="85">
            <tspan class="joint-field-name " text-anchor="start" x="14" y="85">
              dept_name
            </tspan>
            <tspan class="joint-field-type" fill="#adb1b5" text-anchor="end" x="130" y="85">
              string
            </tspan>
          </text>
          
          
        <rect class="joint-table-row" stroke="none" x="0" y="94" width="144" height="6" />
        
        </g>
          </g>
        </g></g></g><defs id="v-7" /><text class="qdbd-link" y="20" x="10" font-family="Roboto,'Helvetica Neue', sans-serif">www.quickdatabasediagrams.com</text></svg>